<svg width="20" height="20" viewBox="0 0 20 20" fill="none" xmlns="http://www.w3.org/2000/svg">
<path d="M18.3333 13.4916C18.3333 16.525 16.525 18.3333 13.4916 18.3333H12.5C12.0416 18.3333 11.6666 17.9583 11.6666 17.5V12.6916C11.6666 12.4666 11.85 12.275 12.075 12.275L13.5416 12.25C13.6583 12.2416 13.7583 12.1583 13.7833 12.0416L14.075 10.45C14.1 10.3 13.9833 10.1583 13.825 10.1583L12.05 10.1833C11.8166 10.1833 11.6333 9.99997 11.625 9.77497L11.5916 7.73329C11.5916 7.59996 11.7 7.4833 11.8416 7.4833L13.8416 7.44996C13.9833 7.44996 14.0916 7.34164 14.0916 7.19997L14.0583 5.19995C14.0583 5.05828 13.95 4.94996 13.8083 4.94996L11.5583 4.9833C10.175 5.0083 9.07497 6.14163 9.09997 7.52496L9.14163 9.81663C9.14996 10.05 8.96664 10.2333 8.7333 10.2416L7.73329 10.2583C7.59163 10.2583 7.4833 10.3666 7.4833 10.5083L7.5083 12.0916C7.5083 12.2333 7.61663 12.3416 7.75829 12.3416L8.7583 12.325C8.99164 12.325 9.17495 12.5083 9.18328 12.7333L9.25828 17.4833C9.26662 17.95 8.89161 18.3333 8.42495 18.3333H6.50829C3.47496 18.3333 1.66663 16.525 1.66663 13.4833V6.50829C1.66663 3.47496 3.47496 1.66663 6.50829 1.66663H13.4916C16.525 1.66663 18.3333 3.47496 18.3333 6.50829V13.4916Z" fill="#030F19"/>
</svg>
