<svg width="20" height="20" viewBox="0 0 20 20" fill="none" xmlns="http://www.w3.org/2000/svg">
<path d="M19.375 4.27723C18.6717 4.58283 17.9275 4.78417 17.166 4.87488C17.9663 4.40628 18.5681 3.66182 18.8586 2.78113C18.102 3.22355 17.2756 3.53397 16.4148 3.6991C16.0524 3.31923 15.6165 3.01703 15.1336 2.81088C14.6507 2.60472 14.1309 2.49891 13.6059 2.49988C11.4801 2.49988 9.75977 4.1952 9.75977 6.28504C9.75826 6.57573 9.79157 6.86555 9.85898 7.14832C8.33464 7.07686 6.842 6.688 5.47656 6.00662C4.11111 5.32525 2.90292 4.36635 1.9293 3.19129C1.58772 3.76712 1.40708 4.42412 1.40625 5.09363C1.40625 6.40613 2.09102 7.56629 3.125 8.24598C2.51239 8.23144 1.91234 8.0693 1.37578 7.77332V7.8202C1.37578 9.65613 2.70391 11.1835 4.46172 11.5311C4.13117 11.6193 3.79053 11.6639 3.44844 11.6639C3.20569 11.6644 2.9635 11.6408 2.72539 11.5936C3.21406 13.0975 4.63633 14.1913 6.32109 14.2225C4.9521 15.2776 3.27134 15.8478 1.54297 15.8436C1.23618 15.8432 0.929674 15.8249 0.625 15.7889C2.38327 16.9117 4.42713 17.5056 6.51328 17.4999C13.5977 17.4999 17.468 11.7304 17.468 6.72645C17.468 6.56238 17.4637 6.39832 17.4559 6.23817C18.2071 5.70381 18.857 5.03977 19.375 4.27723Z" fill="#030F19"/>
</svg>
